<svg width="158" height="88" viewBox="0 0 158 88" fill="none" xmlns="http://www.w3.org/2000/svg">
<path d="M10.3516 37C11.5234 37 12.5488 36.7891 13.4277 36.3672C14.3066 35.9453 15.0566 35.3887 15.6777 34.6973C14.9277 34.5566 14.2363 34.3105 13.6035 33.959C12.9824 33.6074 12.4434 33.1738 11.9863 32.6582C11.5293 32.1309 11.1719 31.5391 10.9141 30.8828C10.6562 30.2148 10.5273 29.4941 10.5273 28.7207C10.5273 27.959 10.6621 27.2617 10.9316 26.6289C11.2012 25.9844 11.5645 25.4336 12.0215 24.9766C12.4785 24.5078 13.0059 24.1445 13.6035 23.8867C14.2129 23.6289 14.8457 23.5 15.502 23.5C16.1113 23.5 16.6973 23.6113 17.2598 23.834C17.834 24.0566 18.3379 24.3848 18.7715 24.8184C19.2051 25.2402 19.5508 25.7734 19.8086 26.418C20.0781 27.0508 20.2129 27.7832 20.2129 28.6152C20.2129 29.459 20.0312 30.3438 19.668 31.2695C19.3047 32.1953 18.7891 33.0742 18.1211 33.9062C18.8242 33.8125 19.4395 33.6133 19.9668 33.3086C20.4941 33.0039 20.9512 32.6406 21.3379 32.2188C21.7363 31.7969 22.0762 31.3457 22.3574 30.8652C22.6504 30.373 22.9082 29.8984 23.1309 29.4414L23.3066 29.0723L24.0273 29.6172L23.8516 29.9863C23.4883 30.7129 23.084 31.375 22.6387 31.9727C22.1934 32.5703 21.7012 33.0801 21.1621 33.502C20.623 33.9238 20.0312 34.252 19.3867 34.4863C18.7422 34.709 18.0449 34.8262 17.2949 34.8379C16.3926 35.752 15.3086 36.4902 14.043 37.0527C12.7773 37.6152 11.3652 37.8965 9.80664 37.8965C8.43555 37.8965 7.1875 37.668 6.0625 37.2109C4.9375 36.7539 3.9707 36.1328 3.16211 35.3477C2.36523 34.5625 1.74414 33.6484 1.29883 32.6055C0.853516 31.5625 0.630859 30.4492 0.630859 29.2656C0.630859 27.9297 0.835938 26.7695 1.24609 25.7852C1.66797 24.7891 2.20703 23.9395 2.86328 23.2363C3.51953 22.5332 4.24609 21.9531 5.04297 21.4961C5.85156 21.0273 6.64844 20.6523 7.43359 20.3711C6.68359 20.0898 6.02148 19.7324 5.44727 19.2988C4.87305 18.8652 4.38672 18.3848 3.98828 17.8574C3.60156 17.3184 3.30273 16.75 3.0918 16.1523C2.89258 15.543 2.79297 14.9336 2.79297 14.3242C2.79297 13.2227 3.02148 12.25 3.47852 11.4062C3.93555 10.5508 4.52734 9.83594 5.25391 9.26172C5.99219 8.67578 6.81836 8.23633 7.73242 7.94336C8.6582 7.63867 9.58984 7.48633 10.5273 7.48633C11.3008 7.48633 12.0391 7.58008 12.7422 7.76758C13.457 7.95508 14.0781 8.21875 14.6055 8.55859C14.8867 8.5 15.1797 8.45898 15.4844 8.43555C15.8008 8.40039 16.1289 8.38281 16.4688 8.38281V9.10352C16.2695 9.10352 16.082 9.10937 15.9062 9.12109C15.7305 9.13281 15.5605 9.15039 15.3965 9.17383C15.7363 9.50195 16 9.87109 16.1875 10.2812C16.375 10.6797 16.4688 11.125 16.4688 11.6172C16.4688 12.0742 16.3926 12.4902 16.2402 12.8652C16.0996 13.2402 15.8945 13.5625 15.625 13.832C15.3672 14.1016 15.0625 14.3125 14.7109 14.4648C14.3594 14.6055 13.9844 14.6758 13.5859 14.6758C13.1406 14.6758 12.7422 14.6055 12.3906 14.4648C12.0508 14.3242 11.7637 14.1367 11.5293 13.9023C11.2949 13.668 11.1133 13.3926 10.9844 13.0762C10.8555 12.7598 10.791 12.4316 10.791 12.0918C10.791 11.7988 10.8379 11.5 10.9316 11.1953C11.0371 10.8906 11.1895 10.5977 11.3887 10.3164C11.5996 10.0352 11.8633 9.77148 12.1797 9.52539C12.5078 9.2793 12.8945 9.06836 13.3398 8.89258C12.8945 8.70508 12.4258 8.57617 11.9336 8.50586C11.4531 8.42383 11.043 8.38281 10.7031 8.38281C9.88281 8.38281 9.15625 8.5293 8.52344 8.82227C7.90234 9.10352 7.38086 9.50781 6.95898 10.0352C6.53711 10.5625 6.21484 11.2012 5.99219 11.9512C5.78125 12.7012 5.67578 13.5391 5.67578 14.4648C5.67578 15.0625 5.74609 15.6543 5.88672 16.2402C6.02734 16.8145 6.23242 17.3477 6.50195 17.8398C6.77148 18.3203 7.11133 18.7422 7.52148 19.1055C7.93164 19.457 8.40625 19.7207 8.94531 19.8965C9.44922 19.7676 9.90039 19.6797 10.2988 19.6328C10.6973 19.5742 11.0137 19.5449 11.248 19.5449C11.6465 19.5449 11.9336 19.6094 12.1094 19.7383C12.2852 19.8672 12.373 20.0312 12.373 20.2305C12.373 20.3242 12.3555 20.418 12.3203 20.5117C12.2852 20.5938 12.2207 20.6699 12.127 20.7402C12.0332 20.8105 11.8984 20.8691 11.7227 20.916C11.5586 20.9629 11.3418 20.9863 11.0723 20.9863C10.7324 20.9863 10.3984 20.9746 10.0703 20.9512C9.74219 20.9277 9.42578 20.8867 9.12109 20.8281C8.34766 21.0273 7.63867 21.3613 6.99414 21.8301C6.34961 22.2988 5.79297 22.8906 5.32422 23.6055C4.86719 24.3203 4.50977 25.1523 4.25195 26.1016C3.99414 27.0508 3.86523 28.1055 3.86523 29.2656C3.86523 30.6016 4.04688 31.7559 4.41016 32.7285C4.77344 33.7012 5.25977 34.5039 5.86914 35.1367C6.47852 35.7695 7.16992 36.2383 7.94336 36.543C8.7168 36.8477 9.51953 37 10.3516 37ZM17.9102 28.8965C17.9102 28.1699 17.8223 27.543 17.6465 27.0156C17.4824 26.4883 17.2598 26.0547 16.9785 25.7148C16.6973 25.3633 16.375 25.1055 16.0117 24.9414C15.6484 24.7773 15.2734 24.6953 14.8867 24.6953C14.4766 24.6953 14.0781 24.7891 13.6914 24.9766C13.3047 25.1523 12.9531 25.4102 12.6367 25.75C12.332 26.0898 12.0859 26.5117 11.8984 27.0156C11.7109 27.5195 11.6172 28.0879 11.6172 28.7207C11.6172 29.4238 11.7285 30.0742 11.9512 30.6719C12.1855 31.2578 12.5078 31.7793 12.918 32.2363C13.3398 32.6816 13.8379 33.0508 14.4121 33.3438C14.998 33.625 15.6367 33.8125 16.3281 33.9062C16.8672 33.1328 17.2656 32.3066 17.5234 31.4277C17.7812 30.5488 17.9102 29.7051 17.9102 28.8965ZM15.5723 11.6172C15.5723 11.1133 15.4492 10.6797 15.2031 10.3164C14.957 9.95312 14.6465 9.64258 14.2715 9.38477C13.8145 9.51367 13.4219 9.67773 13.0938 9.87695C12.7656 10.0762 12.4961 10.2988 12.2852 10.5449C12.0859 10.7793 11.9336 11.0313 11.8281 11.3008C11.7344 11.5586 11.6875 11.8105 11.6875 12.0566C11.6875 12.5254 11.8516 12.9297 12.1797 13.2695C12.5195 13.6094 12.9883 13.7793 13.5859 13.7793C14.2188 13.7793 14.7051 13.5801 15.0449 13.1816C15.3965 12.7715 15.5723 12.25 15.5723 11.6172ZM26.8926 37C26.1777 37 25.5566 36.8477 25.0293 36.543C24.5137 36.2383 24.0859 35.8281 23.7461 35.3125C23.4062 34.7852 23.1543 34.1816 22.9902 33.502C22.8262 32.8223 22.7441 32.1016 22.7441 31.3398C22.7441 30.6719 22.8086 29.9922 22.9375 29.3008C23.0664 28.6094 23.248 27.9414 23.4824 27.2969C23.7285 26.6406 24.0332 26.0312 24.3965 25.4688C24.7598 24.8945 25.1758 24.3965 25.6445 23.9746C26.1133 23.5527 26.6348 23.2188 27.209 22.9727C27.7949 22.7266 28.4219 22.6035 29.0898 22.6035C29.8516 22.6035 30.4961 22.7734 31.0234 23.1133C31.5625 23.4531 31.9961 23.8691 32.3242 24.3613C32.3359 22.1465 32.4473 20.1895 32.6582 18.4902C32.8691 16.791 33.1621 15.3672 33.5371 14.2188C33.9238 13.0703 34.3809 12.2031 34.9082 11.6172C35.4355 11.0195 36.0156 10.7207 36.6484 10.7207C36.8711 10.7207 37.0703 10.75 37.2461 10.8086C37.4336 10.8555 37.5859 10.9492 37.7031 11.0898C37.832 11.2305 37.9258 11.4238 37.9844 11.6699C38.0547 11.9043 38.0898 12.209 38.0898 12.584C38.0898 13.3574 38.0137 14.248 37.8613 15.2559C37.709 16.252 37.4922 17.3418 37.2109 18.5254C36.9297 19.6973 36.584 20.9512 36.1738 22.2871C35.7754 23.6113 35.3301 24.9883 34.8379 26.418C34.8496 27.6719 34.8672 28.7559 34.8906 29.6699C34.9141 30.584 34.9434 31.3574 34.9785 31.9902C35.0254 32.623 35.0781 33.1387 35.1367 33.5371C35.207 33.9355 35.2832 34.2461 35.3652 34.4688C35.459 34.6797 35.5645 34.8262 35.6816 34.9082C35.8105 34.9785 35.9512 35.0137 36.1035 35.0137C36.373 35.0137 36.6426 34.8965 36.9121 34.6621C37.1934 34.416 37.4922 34.0586 37.8086 33.5898C38.125 33.1094 38.4648 32.5234 38.8281 31.832C39.2031 31.1406 39.6133 30.3438 40.0586 29.4414L40.252 29.0723L40.9727 29.6172L40.7793 29.9863C40.0996 31.3574 39.502 32.4941 38.9863 33.3965C38.4707 34.2871 37.9961 35.002 37.5625 35.541C37.1406 36.0801 36.7363 36.4609 36.3496 36.6836C35.9629 36.8945 35.5586 37 35.1367 37C34.7266 37 34.3691 36.9004 34.0645 36.7012C33.7715 36.4902 33.5195 36.168 33.3086 35.7344C33.0977 35.2891 32.9277 34.7266 32.7988 34.0469C32.6699 33.3555 32.5703 32.5293 32.5 31.5684C32.0898 32.3887 31.668 33.1328 31.2344 33.8008C30.8008 34.4688 30.3496 35.043 29.8809 35.5234C29.4238 35.9922 28.9434 36.3555 28.4395 36.6133C27.9355 36.8711 27.4199 37 26.8926 37ZM29.4414 23.5C28.7969 23.5 28.2344 23.6992 27.7539 24.0977C27.2734 24.4844 26.875 24.9941 26.5586 25.627C26.2422 26.248 26.0078 26.9512 25.8555 27.7363C25.7031 28.5215 25.627 29.3066 25.627 30.0918C25.627 30.7363 25.6738 31.3574 25.7676 31.9551C25.873 32.541 26.0254 33.0625 26.2246 33.5195C26.4355 33.9766 26.6875 34.3398 26.9805 34.6094C27.2734 34.8789 27.6133 35.0137 28 35.0137C28.375 35.0137 28.7383 34.9199 29.0898 34.7324C29.4531 34.5449 29.8105 34.2461 30.1621 33.8359C30.5137 33.4141 30.8711 32.875 31.2344 32.2188C31.5977 31.5508 31.9844 30.7422 32.3945 29.793C32.3711 29.2305 32.3535 28.6328 32.3418 28C32.3301 27.3555 32.3242 26.6699 32.3242 25.9434C32.0664 25.1816 31.6738 24.584 31.1465 24.1504C30.6309 23.7168 30.0625 23.5 29.4414 23.5ZM36.8242 13.2344C36.8242 12.6953 36.7598 12.3203 36.6309 12.1094C36.5137 11.8984 36.373 11.793 36.209 11.793C35.9277 11.793 35.6992 12.0684 35.5234 12.6191C35.3477 13.1582 35.207 13.8906 35.1016 14.8164C35.0078 15.7422 34.9375 16.8145 34.8906 18.0332C34.8555 19.252 34.8379 20.5352 34.8379 21.8828V23.8164C35.2012 22.6328 35.5117 21.5664 35.7695 20.6172C36.0273 19.668 36.2324 18.7832 36.3848 17.9629C36.5371 17.1426 36.6484 16.3516 36.7188 15.5898C36.7891 14.8281 36.8242 14.043 36.8242 13.2344ZM64.9316 7.48633C66.1504 7.48633 67.2168 7.64453 68.1309 7.96094C69.0566 8.27734 69.8301 8.7168 70.4512 9.2793C71.0723 9.83008 71.5352 10.4805 71.8398 11.2305C72.1562 11.9688 72.3145 12.7598 72.3145 13.6035C72.3145 14.5293 72.1562 15.4199 71.8398 16.2754C71.5352 17.1191 71.1074 17.9219 70.5566 18.6836C70.0176 19.4453 69.3789 20.1602 68.6406 20.8281C67.9023 21.4961 67.1113 22.1055 66.2676 22.6562C65.4238 23.207 64.5449 23.6992 63.6309 24.1328C62.7285 24.5664 61.832 24.9297 60.9414 25.2227C61.5742 25.7852 62.1484 26.4414 62.6641 27.1914C63.1797 27.9297 63.6719 28.7207 64.1406 29.5645C64.6094 30.3965 65.0723 31.252 65.5293 32.1309C65.9863 33.0098 66.4668 33.8652 66.9707 34.6973C67.4746 35.5176 68.0195 36.2969 68.6055 37.0352C69.2031 37.7734 69.877 38.418 70.627 38.9688C71.3887 39.5312 72.2383 39.9707 73.1758 40.2871C74.1133 40.6152 75.1855 40.7793 76.3926 40.7793L76.4629 41.5C76.3105 41.5352 76.1348 41.5645 75.9355 41.5879C75.7715 41.6113 75.5664 41.6289 75.3203 41.6406C75.0742 41.6641 74.793 41.6758 74.4766 41.6758C72.9531 41.6758 71.623 41.5 70.4863 41.1484C69.3496 40.8086 68.3594 40.3398 67.5156 39.7422C66.6836 39.1562 65.9746 38.4707 65.3887 37.6855C64.8027 36.9121 64.2871 36.0918 63.8418 35.2246C63.4082 34.3457 63.0273 33.4551 62.6992 32.5527C62.3711 31.6387 62.043 30.7598 61.7148 29.916C61.3984 29.0605 61.0586 28.2695 60.6953 27.543C60.3438 26.8047 59.9219 26.1777 59.4297 25.6621C59.1953 25.7207 58.9609 25.7676 58.7266 25.8027C58.5039 25.8379 58.2812 25.873 58.0586 25.9082C58.0469 26.752 58.0293 27.4844 58.0059 28.1055C57.9941 28.7148 57.9766 29.2539 57.9531 29.7227C57.9297 30.1797 57.9004 30.584 57.8652 30.9355C57.8301 31.2871 57.7891 31.627 57.7422 31.9551C57.6133 32.8691 57.4258 33.6484 57.1797 34.293C56.9336 34.9258 56.6348 35.4473 56.2832 35.8574C55.9316 36.2559 55.5273 36.5488 55.0703 36.7363C54.625 36.9121 54.1328 37 53.5938 37C52.832 37 52.1172 36.7773 51.4492 36.332C50.793 35.8867 50.2246 35.2246 49.7441 34.3457C49.2637 33.4668 48.8828 32.377 48.6016 31.0762C48.332 29.7754 48.1973 28.2695 48.1973 26.5586C48.1973 24.7656 48.3906 23.0488 48.7773 21.4082C49.1641 19.7559 49.709 18.2266 50.4121 16.8203C51.127 15.4023 51.9883 14.1191 52.9961 12.9707C54.0039 11.8223 55.123 10.8438 56.3535 10.0352C57.5957 9.21484 58.9375 8.58789 60.3789 8.1543C61.832 7.70898 63.3496 7.48633 64.9316 7.48633ZM54.1387 24.5723C54.1387 24.2676 54.2559 24.0098 54.4902 23.7988C54.7363 23.5762 55.0645 23.4297 55.4746 23.3594C55.4512 22.2109 55.4219 21.1621 55.3867 20.2129C55.3516 19.2637 55.3223 18.4434 55.2988 17.752C55.2637 16.9434 55.2344 16.2168 55.2109 15.5723C55.293 15.502 55.3867 15.4434 55.4922 15.3965C55.5859 15.3496 55.6973 15.3086 55.8262 15.2734C55.9551 15.2383 56.1133 15.2207 56.3008 15.2207C56.8398 15.2207 57.2734 15.3203 57.6016 15.5195C57.9297 15.707 58.0938 16.0293 58.0938 16.4863C58.0938 17.8691 58.0938 19.1523 58.0938 20.3359C58.0938 21.5078 58.082 22.6094 58.0586 23.6406C58.4336 23.7461 58.791 23.8809 59.1309 24.0449C59.4824 24.1973 59.8105 24.373 60.1152 24.5723C61.1934 24.2793 62.2773 23.8574 63.3672 23.3066C64.457 22.7559 65.4355 22.0586 66.3027 21.2148C67.1816 20.3594 67.8906 19.3516 68.4297 18.1914C68.9805 17.0195 69.2559 15.6719 69.2559 14.1484C69.2559 13.1523 69.1152 12.3027 68.834 11.5996C68.5645 10.8965 68.1953 10.3223 67.7266 9.87695C67.2578 9.41992 66.7012 9.08594 66.0566 8.875C65.4238 8.66406 64.75 8.55859 64.0352 8.55859C62.8398 8.55859 61.6621 8.73438 60.502 9.08594C59.3535 9.42578 58.2637 9.94727 57.2324 10.6504C56.2129 11.3535 55.2695 12.2441 54.4023 13.3223C53.5469 14.4004 52.8027 15.6719 52.1699 17.1367C51.5488 18.6016 51.0625 20.2656 50.7109 22.1289C50.3594 23.9922 50.1836 26.0664 50.1836 28.3516C50.1836 29.3477 50.2305 30.3145 50.3242 31.252C50.4297 32.1777 50.5996 33.0039 50.834 33.7305C51.0684 34.4453 51.3789 35.0195 51.7656 35.4531C52.1641 35.8867 52.6562 36.1035 53.2422 36.1035C53.5586 36.1035 53.8574 36.0391 54.1387 35.9102C54.4199 35.7812 54.666 35.5176 54.877 35.1191C55.0879 34.709 55.2578 34.1289 55.3867 33.3789C55.5156 32.6172 55.5801 31.6035 55.5801 30.3379C55.5801 29.8809 55.5801 29.4766 55.5801 29.125C55.5801 28.7617 55.5801 28.416 55.5801 28.0879C55.5801 27.748 55.5742 27.4082 55.5625 27.0684C55.5625 26.7285 55.5566 26.3535 55.5449 25.9434C55.0996 25.8379 54.7539 25.668 54.5078 25.4336C54.2617 25.1992 54.1387 24.9121 54.1387 24.5723ZM55.0352 24.5723C55.0352 24.6895 55.0527 24.7891 55.0879 24.8711C55.1348 24.9531 55.2754 25.0234 55.5098 25.082V24.2559C55.1934 24.3262 55.0352 24.4316 55.0352 24.5723ZM58.0586 25.0117C58.1523 25.0117 58.2402 25.0059 58.3223 24.9941C58.416 24.9824 58.5098 24.9648 58.6035 24.9414C58.5098 24.8828 58.416 24.8301 58.3223 24.7832C58.2402 24.7363 58.1523 24.6953 58.0586 24.6602V25.0117ZM72.5254 23.0957C72.5723 22.9785 72.6836 22.8848 72.8594 22.8145C73.0352 22.7441 73.2227 22.6973 73.4219 22.6738C73.6211 22.6387 73.8086 22.6211 73.9844 22.6211C74.1602 22.6094 74.2773 22.6035 74.3359 22.6035C74.5117 22.6035 74.623 22.6504 74.6699 22.7441C74.7285 22.8262 74.7578 22.9609 74.7578 23.1484C74.7578 23.2422 74.7285 23.4531 74.6699 23.7812C74.6113 24.0977 74.5352 24.4961 74.4414 24.9766C74.3594 25.457 74.2656 26.002 74.1602 26.6113C74.0664 27.2207 73.9727 27.8477 73.8789 28.4922C73.7969 29.1367 73.7266 29.793 73.668 30.4609C73.6094 31.1172 73.5801 31.7383 73.5801 32.3242C73.5801 33.3438 73.75 34.1113 74.0898 34.627C74.4297 35.1309 74.8223 35.3828 75.2676 35.3828C76.041 35.3828 76.7266 34.8145 77.3242 33.6777C77.9219 32.541 78.543 30.877 79.1875 28.6855V23.5703C79.1875 23.3711 79.2754 23.2129 79.4512 23.0957C79.6387 22.9668 79.8496 22.8672 80.084 22.7969C80.3184 22.7266 80.5469 22.6797 80.7695 22.6562C80.9922 22.6211 81.1504 22.6035 81.2441 22.6035C81.6074 22.6035 81.7891 22.7852 81.7891 23.1484C81.7891 23.2773 81.7773 23.4941 81.7539 23.7988C81.7422 24.0918 81.7246 24.4434 81.7012 24.8535C81.6777 25.252 81.6543 25.6973 81.6309 26.1895C81.6191 26.6699 81.6133 27.1562 81.6133 27.6484V34.8027C81.8242 34.5332 82.0879 34.1758 82.4043 33.7305C82.7324 33.2852 83.0664 32.8105 83.4062 32.3066C83.7578 31.8027 84.0918 31.2988 84.4082 30.7949C84.7363 30.291 85 29.8398 85.1992 29.4414L85.3926 29.0723L86.1133 29.6172L85.9199 29.9863C85.6738 30.4785 85.3809 30.9883 85.041 31.5156C84.7012 32.043 84.3379 32.5762 83.9512 33.1152C83.5762 33.6426 83.1836 34.1699 82.7734 34.6973C82.375 35.2129 81.9883 35.7051 81.6133 36.1738V40.0586C81.6133 41.1367 81.5137 42.0508 81.3145 42.8008C81.127 43.5625 80.8633 44.1777 80.5234 44.6465C80.1836 45.127 79.7852 45.4727 79.3281 45.6836C78.8711 45.8945 78.373 46 77.834 46C77.4941 46 77.1777 45.9473 76.8848 45.8418C76.6035 45.7363 76.3574 45.5781 76.1465 45.3672C75.9355 45.168 75.7715 44.9219 75.6543 44.6289C75.5371 44.3477 75.4785 44.0254 75.4785 43.6621C75.4785 43.1348 75.5723 42.6074 75.7598 42.0801C75.959 41.5527 76.2285 41.0078 76.5684 40.4453C76.9199 39.8828 77.3242 39.3027 77.7812 38.7051C78.2383 38.1191 78.7305 37.5039 79.2578 36.8594V31.5332C78.9648 32.3301 78.6484 33.0684 78.3086 33.748C77.9688 34.416 77.5996 34.9902 77.2012 35.4707C76.8027 35.9512 76.375 36.3262 75.918 36.5957C75.4609 36.8652 74.9688 37 74.4414 37C74.0664 37 73.6797 36.9414 73.2812 36.8242C72.8945 36.6953 72.5312 36.4668 72.1914 36.1387C71.8633 35.8105 71.5938 35.3711 71.3828 34.8203C71.1719 34.2578 71.0664 33.543 71.0664 32.6758C71.0664 31.6914 71.125 30.6895 71.2422 29.6699C71.3594 28.6504 71.4941 27.7012 71.6465 26.8223C71.8105 25.9434 71.9746 25.1758 72.1387 24.5195C72.3027 23.8516 72.4316 23.377 72.5254 23.0957ZM77.6406 44.9277C77.8281 44.9277 78.0156 44.8867 78.2031 44.8047C78.4023 44.7344 78.5781 44.5645 78.7305 44.2949C78.8828 44.0254 79.0059 43.627 79.0996 43.0996C79.2051 42.5723 79.2578 41.8574 79.2578 40.9551V38.3008C78.8594 38.793 78.4902 39.2676 78.1504 39.7246C77.8223 40.1934 77.5352 40.6445 77.2891 41.0781C77.043 41.5234 76.8496 41.9512 76.709 42.3613C76.5684 42.7715 76.498 43.1699 76.498 43.5566C76.498 43.9199 76.5977 44.2363 76.7969 44.5059C76.9961 44.7871 77.2773 44.9277 77.6406 44.9277ZM96.0625 32.6406C96.0625 33.3086 96.1211 33.8711 96.2383 34.3281C96.3555 34.7852 96.5605 35.0137 96.8535 35.0137C97.0293 35.0137 97.2168 34.9316 97.416 34.7676C97.627 34.5918 97.8672 34.3105 98.1367 33.9238C98.4062 33.5371 98.7109 33.0391 99.0508 32.4297C99.4023 31.8086 99.8008 31.0527 100.246 30.1621L100.773 29.0723L101.494 29.6172L100.967 30.707C100.475 31.6914 100.012 32.5762 99.5781 33.3613C99.1562 34.1348 98.752 34.791 98.3652 35.3301C97.9785 35.8691 97.5977 36.2852 97.2227 36.5781C96.8594 36.8594 96.4961 37 96.1328 37C95.7461 37 95.418 36.8945 95.1484 36.6836C94.8906 36.4727 94.6738 36.1855 94.498 35.8223C94.3223 35.4473 94.1875 35.0195 94.0938 34.5391C94 34.0469 93.9355 33.5254 93.9004 32.9746C93.6191 33.5371 93.3086 34.0645 92.9688 34.5566C92.6289 35.0371 92.2715 35.459 91.8965 35.8223C91.5332 36.1855 91.1523 36.4727 90.7539 36.6836C90.3555 36.8945 89.957 37 89.5586 37C88.9727 37 88.4043 36.877 87.8535 36.6309C87.3027 36.3848 86.8105 36.0098 86.377 35.5059C85.9551 35.002 85.6152 34.3691 85.3574 33.6074C85.0996 32.834 84.9707 31.9258 84.9707 30.8828C84.9707 29.6641 85.1289 28.5508 85.4453 27.543C85.7617 26.5234 86.1895 25.6504 86.7285 24.9238C87.2676 24.1855 87.8887 23.6172 88.5918 23.2188C89.2949 22.8086 90.0332 22.6035 90.8066 22.6035C91.2754 22.6035 91.709 22.709 92.1074 22.9199C92.5059 23.1309 92.8516 23.3887 93.1445 23.6934C93.4492 23.9863 93.7012 24.3027 93.9004 24.6426C94.0996 24.9707 94.2344 25.252 94.3047 25.4863L94.5156 23.7812C94.5391 23.5586 94.6445 23.3711 94.832 23.2188C95.0312 23.0664 95.248 22.9492 95.4824 22.8672C95.7168 22.7734 95.9453 22.709 96.168 22.6738C96.3906 22.627 96.5488 22.6035 96.6426 22.6035C96.7832 22.6035 96.877 22.627 96.9238 22.6738C96.9707 22.7207 96.9941 22.8145 96.9941 22.9551C96.9941 23.1309 96.9414 23.4883 96.8359 24.0273C96.7422 24.5547 96.6367 25.2344 96.5195 26.0664C96.4141 26.8867 96.3086 27.8535 96.2031 28.9668C96.1094 30.0801 96.0625 31.3047 96.0625 32.6406ZM94.1289 28C94.1289 27.4609 94.0469 26.9336 93.8828 26.418C93.7188 25.8906 93.4961 25.4277 93.2148 25.0293C92.9336 24.6191 92.6055 24.291 92.2305 24.0449C91.8672 23.7988 91.4805 23.6758 91.0703 23.6758C90.5664 23.6758 90.0918 23.8223 89.6465 24.1152C89.2129 24.3965 88.832 24.8008 88.5039 25.3281C88.1875 25.8438 87.9355 26.4707 87.748 27.209C87.5605 27.9355 87.4668 28.7383 87.4668 29.6172C87.4668 31.375 87.7422 32.7168 88.293 33.6426C88.8438 34.5566 89.5762 35.0137 90.4902 35.0137C90.8887 35.0137 91.2988 34.8555 91.7207 34.5391C92.1543 34.2109 92.5469 33.748 92.8984 33.1504C93.2617 32.541 93.5547 31.8027 93.7773 30.9355C94.0117 30.0684 94.1289 29.0898 94.1289 28ZM107.541 23.8164C107.213 23.8164 106.844 23.9629 106.434 24.2559C106.035 24.5488 105.631 24.9297 105.221 25.3984C104.811 25.8555 104.412 26.3711 104.025 26.9453C103.65 27.5195 103.322 28.0879 103.041 28.6504C103.006 29.6816 102.971 30.8066 102.936 32.0254C102.912 33.2441 102.9 34.5449 102.9 35.9277C102.9 36.1035 102.818 36.2617 102.654 36.4023C102.502 36.5312 102.32 36.6426 102.109 36.7363C101.898 36.8184 101.682 36.8828 101.459 36.9297C101.236 36.9766 101.055 37 100.914 37C100.738 37 100.574 36.9473 100.422 36.8418C100.27 36.7363 100.193 36.502 100.193 36.1387C100.193 35.9629 100.211 35.7461 100.246 35.4883C100.281 35.2188 100.328 34.9316 100.387 34.627C100.434 34.3223 100.492 34.0117 100.562 33.6953C100.621 33.3672 100.68 33.0625 100.738 32.7812V24.1855C100.738 23.9512 100.744 23.7695 100.756 23.6406C100.756 23.5 100.773 23.3945 100.809 23.3242C100.879 23.1602 101.002 23.0312 101.178 22.9375C101.354 22.8438 101.541 22.7734 101.74 22.7266C101.939 22.668 102.133 22.6328 102.32 22.6211C102.508 22.6094 102.654 22.6035 102.76 22.6035C102.959 22.6035 103.094 22.6562 103.164 22.7617C103.246 22.8672 103.287 23.0547 103.287 23.3242C103.287 23.2891 103.258 23.5762 103.199 24.1855C103.152 24.7949 103.111 25.668 103.076 26.8047C103.428 26.2539 103.809 25.7266 104.219 25.2227C104.629 24.7188 105.057 24.2734 105.502 23.8867C105.947 23.5 106.404 23.1895 106.873 22.9551C107.354 22.7207 107.84 22.6035 108.332 22.6035C109.211 22.6035 109.855 22.8848 110.266 23.4473C110.676 23.998 110.881 24.748 110.881 25.6973C110.881 26.2949 110.84 26.9629 110.758 27.7012C110.688 28.4277 110.6 29.1719 110.494 29.9336C110.4 30.6836 110.312 31.4219 110.23 32.1484C110.16 32.8633 110.125 33.5195 110.125 34.1172C110.125 34.8906 110.365 35.2773 110.846 35.2773C110.998 35.2773 111.174 35.2012 111.373 35.0488C111.584 34.8848 111.842 34.5859 112.146 34.1523C112.463 33.7188 112.838 33.127 113.271 32.377C113.705 31.6152 114.221 30.6367 114.818 29.4414L114.994 29.0723L115.715 29.6172L115.539 29.9863C114.836 31.3926 114.209 32.5469 113.658 33.4492C113.119 34.3516 112.627 35.0664 112.182 35.5938C111.736 36.1211 111.32 36.4902 110.934 36.7012C110.547 36.9004 110.16 37 109.773 37C109.527 37 109.281 36.9648 109.035 36.8945C108.789 36.8242 108.572 36.7012 108.385 36.5254C108.197 36.3496 108.045 36.1152 107.928 35.8223C107.811 35.5176 107.752 35.1309 107.752 34.6621C107.752 33.959 107.799 33.168 107.893 32.2891C107.986 31.4102 108.092 30.5312 108.209 29.6523C108.326 28.7734 108.432 27.9473 108.525 27.1738C108.619 26.3887 108.666 25.75 108.666 25.2578C108.666 24.8242 108.572 24.4785 108.385 24.2207C108.197 23.9512 107.916 23.8164 107.541 23.8164Z" fill="white"/>
<path d="M73.0195 49.6621C73.7344 49.6621 74.3438 49.8496 74.8477 50.2246C75.3516 50.5879 75.7676 51.1152 76.0957 51.8066C76.4238 52.4863 76.6641 53.3184 76.8164 54.3027C76.9688 55.2754 77.0449 56.3652 77.0449 57.5723C77.0449 58.6973 76.9805 59.875 76.8516 61.1055C76.7227 62.3359 76.5293 63.584 76.2715 64.8496C76.0254 66.1035 75.7148 67.3457 75.3398 68.5762C74.9766 69.8066 74.5605 70.9785 74.0918 72.0918C73.623 73.2051 73.1016 74.2422 72.5273 75.2031C71.9531 76.1523 71.332 76.9785 70.6641 77.6816C69.9961 78.373 69.2812 78.9121 68.5195 79.2988C67.7695 79.6973 66.9785 79.8965 66.1465 79.8965C65.2676 79.8965 64.5059 79.7383 63.8613 79.4219C63.2285 79.1172 62.6895 78.7012 62.2441 78.1738C61.8105 77.6348 61.459 77.0195 61.1895 76.3281C60.9199 75.625 60.709 74.8867 60.5566 74.1133C60.416 73.3398 60.3223 72.5547 60.2754 71.7578C60.2285 70.9492 60.2051 70.1816 60.2051 69.4551C60.2051 68.0605 60.2637 66.707 60.3809 65.3945C60.498 64.0703 60.627 62.793 60.7676 61.5625C60.9199 60.332 61.0547 59.1543 61.1719 58.0293C61.2891 56.9043 61.3477 55.832 61.3477 54.8125C61.3477 53.957 61.3008 53.248 61.207 52.6855C61.1133 52.1113 60.9668 51.6543 60.7676 51.3145C60.5801 50.9746 60.3398 50.7344 60.0469 50.5938C59.7539 50.4531 59.4082 50.3828 59.0098 50.3828C58.4941 50.3828 57.9844 50.5 57.4805 50.7344C56.9766 50.9688 56.4902 51.2969 56.0215 51.7188C55.5645 52.1289 55.1426 52.6211 54.7559 53.1953C54.3691 53.7578 54.0352 54.373 53.7539 55.041C53.4609 55.709 53.2324 56.4121 53.0684 57.1504C52.9043 57.877 52.8223 58.6094 52.8223 59.3477C52.8223 60.1094 52.875 60.748 52.9805 61.2637C53.0859 61.7793 53.2324 62.1953 53.4199 62.5117C53.5957 62.8281 53.8125 63.0566 54.0703 63.1973C54.3398 63.3379 54.6328 63.4082 54.9492 63.4082C55.5 63.4082 55.998 63.2617 56.4434 62.9688C56.8887 62.6641 57.2754 62.2422 57.6035 61.7031C57.9316 61.1523 58.2012 60.4961 58.4121 59.7344C58.623 58.9609 58.7754 58.1113 58.8691 57.1855L59.6953 57.2207C59.6602 57.6191 59.5957 58.0762 59.502 58.5918C59.4199 59.0957 59.2969 59.6113 59.1328 60.1387C58.9688 60.6543 58.7637 61.1641 58.5176 61.668C58.2715 62.1719 57.9668 62.6172 57.6035 63.0039C57.2402 63.3906 56.8184 63.707 56.3379 63.9531C55.8574 64.1875 55.3008 64.3047 54.668 64.3047C54.2109 64.3047 53.7363 64.2168 53.2441 64.041C52.752 63.8652 52.3008 63.5898 51.8906 63.2148C51.4805 62.8398 51.1465 62.3535 50.8887 61.7559C50.6191 61.1465 50.4844 60.4141 50.4844 59.5586C50.4844 58.7148 50.6074 57.8828 50.8535 57.0625C51.0879 56.2422 51.416 55.457 51.8379 54.707C52.248 53.957 52.7402 53.2656 53.3145 52.6328C53.877 52 54.4922 51.4492 55.1602 50.9805C55.8281 50.5117 56.5312 50.1484 57.2695 49.8906C58.0078 49.6211 58.7461 49.4863 59.4844 49.4863C62.625 49.4863 64.1953 51.7656 64.1953 56.3242C64.1953 57.4375 64.1426 58.6211 64.0371 59.875C63.9434 61.1289 63.8379 62.4121 63.7207 63.7246C63.6152 65.0254 63.5098 66.332 63.4043 67.6445C63.3105 68.9453 63.2637 70.1992 63.2637 71.4062C63.2637 72.9766 63.334 74.248 63.4746 75.2207C63.6152 76.1934 63.8203 76.9492 64.0898 77.4883C64.3594 78.0156 64.6875 78.373 65.0742 78.5605C65.4609 78.7363 65.9004 78.8242 66.3926 78.8242C67.1309 78.8242 67.8574 78.5547 68.5723 78.0156C69.2871 77.4648 69.9668 76.7266 70.6113 75.8008C71.2559 74.8633 71.8477 73.7734 72.3867 72.5312C72.9375 71.2773 73.4121 69.9473 73.8105 68.541C74.209 67.123 74.5195 65.6641 74.7422 64.1641C74.9648 62.6523 75.0762 61.1758 75.0762 59.7344C75.0762 58.1055 74.9883 56.752 74.8125 55.6738C74.6367 54.584 74.3965 53.7168 74.0918 53.0723C73.7871 52.416 73.4355 51.9531 73.0371 51.6836C72.6387 51.4141 72.2109 51.2793 71.7539 51.2793C71.4375 51.2793 71.1328 51.3379 70.8398 51.4551C70.5586 51.5605 70.2949 51.6953 70.0488 51.8594C69.8027 52.0234 69.5801 52.1992 69.3809 52.3867C69.1816 52.5742 69.0176 52.7441 68.8887 52.8965L68.168 52.3516C68.332 52.1406 68.5723 51.8828 68.8887 51.5781C69.2168 51.2734 69.5918 50.9805 70.0137 50.6992C70.4473 50.418 70.916 50.1777 71.4199 49.9785C71.9355 49.7676 72.4688 49.6621 73.0195 49.6621ZM88.5938 74.6406C88.5938 75.3086 88.6523 75.8711 88.7695 76.3281C88.8867 76.7852 89.0918 77.0137 89.3848 77.0137C89.5605 77.0137 89.748 76.9316 89.9473 76.7676C90.1582 76.5918 90.3984 76.3105 90.668 75.9238C90.9375 75.5371 91.2422 75.0391 91.582 74.4297C91.9336 73.8086 92.332 73.0527 92.7773 72.1621L93.3047 71.0723L94.0254 71.6172L93.498 72.707C93.0059 73.6914 92.543 74.5762 92.1094 75.3613C91.6875 76.1348 91.2832 76.791 90.8965 77.3301C90.5098 77.8691 90.1289 78.2852 89.7539 78.5781C89.3906 78.8594 89.0273 79 88.6641 79C88.2773 79 87.9492 78.8945 87.6797 78.6836C87.4219 78.4727 87.2051 78.1855 87.0293 77.8223C86.8535 77.4473 86.7188 77.0195 86.625 76.5391C86.5312 76.0469 86.4668 75.5254 86.4316 74.9746C86.1504 75.5371 85.8398 76.0645 85.5 76.5566C85.1602 77.0371 84.8027 77.459 84.4277 77.8223C84.0645 78.1855 83.6836 78.4727 83.2852 78.6836C82.8867 78.8945 82.4883 79 82.0898 79C81.5039 79 80.9355 78.877 80.3848 78.6309C79.834 78.3848 79.3418 78.0098 78.9082 77.5059C78.4863 77.002 78.1465 76.3691 77.8887 75.6074C77.6309 74.834 77.502 73.9258 77.502 72.8828C77.502 71.6641 77.6602 70.5508 77.9766 69.543C78.293 68.5234 78.7207 67.6504 79.2598 66.9238C79.7988 66.1855 80.4199 65.6172 81.123 65.2188C81.8262 64.8086 82.5645 64.6035 83.3379 64.6035C83.8066 64.6035 84.2402 64.709 84.6387 64.9199C85.0371 65.1309 85.3828 65.3887 85.6758 65.6934C85.9805 65.9863 86.2324 66.3027 86.4316 66.6426C86.6309 66.9707 86.7656 67.252 86.8359 67.4863L87.0469 65.7812C87.0703 65.5586 87.1758 65.3711 87.3633 65.2188C87.5625 65.0664 87.7793 64.9492 88.0137 64.8672C88.248 64.7734 88.4766 64.709 88.6992 64.6738C88.9219 64.627 89.0801 64.6035 89.1738 64.6035C89.3145 64.6035 89.4082 64.627 89.4551 64.6738C89.502 64.7207 89.5254 64.8145 89.5254 64.9551C89.5254 65.1309 89.4727 65.4883 89.3672 66.0273C89.2734 66.5547 89.168 67.2344 89.0508 68.0664C88.9453 68.8867 88.8398 69.8535 88.7344 70.9668C88.6406 72.0801 88.5938 73.3047 88.5938 74.6406ZM86.6602 70C86.6602 69.4609 86.5781 68.9336 86.4141 68.418C86.25 67.8906 86.0273 67.4277 85.7461 67.0293C85.4648 66.6191 85.1367 66.291 84.7617 66.0449C84.3984 65.7988 84.0117 65.6758 83.6016 65.6758C83.0977 65.6758 82.623 65.8223 82.1777 66.1152C81.7441 66.3965 81.3633 66.8008 81.0352 67.3281C80.7188 67.8438 80.4668 68.4707 80.2793 69.209C80.0918 69.9355 79.998 70.7383 79.998 71.6172C79.998 73.375 80.2734 74.7168 80.8242 75.6426C81.375 76.5566 82.1074 77.0137 83.0215 77.0137C83.4199 77.0137 83.8301 76.8555 84.252 76.5391C84.6855 76.2109 85.0781 75.748 85.4297 75.1504C85.793 74.541 86.0859 73.8027 86.3086 72.9355C86.543 72.0684 86.6602 71.0898 86.6602 70ZM100.072 65.8164C99.7441 65.8164 99.375 65.9629 98.9648 66.2559C98.5664 66.5488 98.1621 66.9297 97.752 67.3984C97.3418 67.8555 96.9434 68.3711 96.5566 68.9453C96.1816 69.5195 95.8535 70.0879 95.5723 70.6504C95.5371 71.6816 95.502 72.8066 95.4668 74.0254C95.4434 75.2441 95.4316 76.5449 95.4316 77.9277C95.4316 78.1035 95.3496 78.2617 95.1855 78.4023C95.0332 78.5312 94.8516 78.6426 94.6406 78.7363C94.4297 78.8184 94.2129 78.8828 93.9902 78.9297C93.7676 78.9766 93.5859 79 93.4453 79C93.2695 79 93.1055 78.9473 92.9531 78.8418C92.8008 78.7363 92.7246 78.502 92.7246 78.1387C92.7246 77.9629 92.7422 77.7461 92.7773 77.4883C92.8125 77.2188 92.8594 76.9316 92.918 76.627C92.9648 76.3223 93.0234 76.0117 93.0938 75.6953C93.1523 75.3672 93.2109 75.0625 93.2695 74.7812V66.1855C93.2695 65.9512 93.2754 65.7695 93.2871 65.6406C93.2871 65.5 93.3047 65.3945 93.3398 65.3242C93.4102 65.1602 93.5332 65.0312 93.709 64.9375C93.8848 64.8438 94.0723 64.7734 94.2715 64.7266C94.4707 64.668 94.6641 64.6328 94.8516 64.6211C95.0391 64.6094 95.1855 64.6035 95.291 64.6035C95.4902 64.6035 95.625 64.6562 95.6953 64.7617C95.7773 64.8672 95.8184 65.0547 95.8184 65.3242C95.8184 65.2891 95.7891 65.5762 95.7305 66.1855C95.6836 66.7949 95.6426 67.668 95.6074 68.8047C95.959 68.2539 96.3398 67.7266 96.75 67.2227C97.1602 66.7188 97.5879 66.2734 98.0332 65.8867C98.4785 65.5 98.9355 65.1895 99.4043 64.9551C99.8848 64.7207 100.371 64.6035 100.863 64.6035C101.742 64.6035 102.387 64.8848 102.797 65.4473C103.207 65.998 103.412 66.748 103.412 67.6973C103.412 68.2949 103.371 68.9629 103.289 69.7012C103.219 70.4277 103.131 71.1719 103.025 71.9336C102.932 72.6836 102.844 73.4219 102.762 74.1484C102.691 74.8633 102.656 75.5195 102.656 76.1172C102.656 76.8906 102.896 77.2773 103.377 77.2773C103.529 77.2773 103.705 77.2012 103.904 77.0488C104.115 76.8848 104.373 76.5859 104.678 76.1523C104.994 75.7188 105.369 75.127 105.803 74.377C106.236 73.6152 106.752 72.6367 107.35 71.4414L107.525 71.0723L108.246 71.6172L108.07 71.9863C107.367 73.3926 106.74 74.5469 106.189 75.4492C105.65 76.3516 105.158 77.0664 104.713 77.5938C104.268 78.1211 103.852 78.4902 103.465 78.7012C103.078 78.9004 102.691 79 102.305 79C102.059 79 101.812 78.9648 101.566 78.8945C101.32 78.8242 101.104 78.7012 100.916 78.5254C100.729 78.3496 100.576 78.1152 100.459 77.8223C100.342 77.5176 100.283 77.1309 100.283 76.6621C100.283 75.959 100.33 75.168 100.424 74.2891C100.518 73.4102 100.623 72.5312 100.74 71.6523C100.857 70.7734 100.963 69.9473 101.057 69.1738C101.15 68.3887 101.197 67.75 101.197 67.2578C101.197 66.8242 101.104 66.4785 100.916 66.2207C100.729 65.9512 100.447 65.8164 100.072 65.8164ZM112.729 77.0137C113.139 77.0137 113.555 76.9082 113.977 76.6973C114.41 76.4863 114.844 76.1582 115.277 75.7129C115.723 75.2676 116.18 74.6934 116.648 73.9902C117.117 73.2754 117.598 72.4258 118.09 71.4414L118.266 71.0723L118.986 71.6172L118.811 71.9863C118.178 73.2402 117.545 74.3125 116.912 75.2031C116.291 76.0938 115.676 76.8203 115.066 77.3828C114.469 77.9453 113.877 78.3555 113.291 78.6133C112.705 78.8711 112.143 79 111.604 79C110.842 79 110.162 78.8418 109.564 78.5254C108.967 78.209 108.463 77.7812 108.053 77.2422C107.643 76.6914 107.332 76.0586 107.121 75.3438C106.898 74.6172 106.787 73.8555 106.787 73.0586C106.787 71.793 106.963 70.6445 107.314 69.6133C107.654 68.5703 108.111 67.6797 108.686 66.9414C109.271 66.2031 109.934 65.6289 110.672 65.2188C111.41 64.8086 112.178 64.6035 112.975 64.6035C113.783 64.6035 114.398 64.8086 114.82 65.2188C115.254 65.6289 115.471 66.1445 115.471 66.7656C115.471 67.3633 115.301 67.9258 114.961 68.4531C114.621 68.9688 114.158 69.4785 113.572 69.9824C112.998 70.4746 112.33 70.9668 111.568 71.459C110.807 71.9395 110.004 72.4375 109.16 72.9531C109.242 73.5625 109.383 74.1191 109.582 74.623C109.781 75.1152 110.033 75.543 110.338 75.9062C110.643 76.2578 110.994 76.5332 111.393 76.7324C111.791 76.9199 112.236 77.0137 112.729 77.0137ZM113.273 67.293C113.273 66.8242 113.145 66.4551 112.887 66.1855C112.641 65.916 112.336 65.7812 111.973 65.7812C111.668 65.7812 111.346 65.8926 111.006 66.1152C110.666 66.3262 110.355 66.6719 110.074 67.1523C109.793 67.6211 109.559 68.2246 109.371 68.9629C109.184 69.7012 109.09 70.5977 109.09 71.6523V72.0566C109.488 71.8457 109.928 71.5703 110.408 71.2305C110.9 70.8789 111.357 70.4922 111.779 70.0703C112.201 69.6484 112.553 69.2031 112.834 68.7344C113.127 68.2539 113.273 67.7734 113.273 67.293ZM128.531 72.8828C128.531 73.6797 128.408 74.4473 128.162 75.1855C127.928 75.9121 127.576 76.5625 127.107 77.1367C126.65 77.6992 126.076 78.1504 125.385 78.4902C124.705 78.8301 123.926 79 123.047 79C122.414 79 121.846 78.9004 121.342 78.7012C120.85 78.4902 120.428 78.2148 120.076 77.875C119.725 77.5234 119.455 77.1309 119.268 76.6973C119.08 76.252 118.986 75.7949 118.986 75.3262C118.986 74.8574 119.074 74.4238 119.25 74.0254C119.438 73.6152 119.684 73.2695 119.988 72.9883C120.305 72.6953 120.662 72.4668 121.061 72.3027C121.459 72.1387 121.881 72.0566 122.326 72.0566C122.607 72.0566 122.9 72.0918 123.205 72.1621V72.6719C122.83 72.6719 122.461 72.748 122.098 72.9004C121.746 73.0527 121.43 73.2637 121.148 73.5332C120.879 73.791 120.662 74.1074 120.498 74.4824C120.334 74.8457 120.252 75.2383 120.252 75.6602C120.252 76.4336 120.516 77.0547 121.043 77.5234C121.582 77.9805 122.314 78.209 123.24 78.209C123.709 78.209 124.137 78.1211 124.523 77.9453C124.91 77.7578 125.238 77.5059 125.508 77.1895C125.789 76.8613 126 76.4746 126.141 76.0293C126.293 75.584 126.369 75.0977 126.369 74.5703C126.369 74.0664 126.27 73.5977 126.07 73.1641C125.871 72.7305 125.607 72.3203 125.279 71.9336C124.951 71.5469 124.576 71.1836 124.154 70.8438C123.744 70.5039 123.322 70.1816 122.889 69.877C122.467 69.5605 122.051 69.2559 121.641 68.9629C121.23 68.6699 120.873 68.377 120.568 68.084L118.811 71.9863L118.09 71.4414L119.883 67.5215C119.449 67.1113 119.127 66.7246 118.916 66.3613C118.717 65.9863 118.617 65.541 118.617 65.0254C118.617 64.7441 118.664 64.4805 118.758 64.2344C118.863 63.9766 118.998 63.7598 119.162 63.584C119.338 63.3965 119.537 63.25 119.76 63.1445C119.982 63.0391 120.217 62.9863 120.463 62.9863C120.908 62.9863 121.242 63.1152 121.465 63.373C121.688 63.6191 121.799 63.9297 121.799 64.3047C121.799 64.4805 121.781 64.668 121.746 64.8672C121.711 65.0547 121.664 65.248 121.605 65.4473C121.559 65.6348 121.506 65.8105 121.447 65.9746C121.4 66.1387 121.359 66.2793 121.324 66.3965C121.676 66.666 122.098 66.9297 122.59 67.1875C123.082 67.4336 123.592 67.6914 124.119 67.9609C124.658 68.2305 125.191 68.5234 125.719 68.8398C126.246 69.1562 126.715 69.5078 127.125 69.8945C127.547 70.2812 127.887 70.7207 128.145 71.2129C128.402 71.7051 128.531 72.2617 128.531 72.8828ZM120.498 63.7773C120.334 63.7773 120.199 63.8359 120.094 63.9531C120 64.0586 119.953 64.2051 119.953 64.3926C119.953 64.6035 120.006 64.8379 120.111 65.0957C120.217 65.3535 120.404 65.6055 120.674 65.8516C120.791 65.6055 120.879 65.3652 120.938 65.1309C121.008 64.8965 121.043 64.6621 121.043 64.4277C121.043 64.2402 120.99 64.0879 120.885 63.9707C120.791 63.8418 120.662 63.7773 120.498 63.7773ZM140.238 72.8828C140.238 73.6797 140.115 74.4473 139.869 75.1855C139.635 75.9121 139.283 76.5625 138.814 77.1367C138.357 77.6992 137.783 78.1504 137.092 78.4902C136.412 78.8301 135.633 79 134.754 79C134.121 79 133.553 78.9004 133.049 78.7012C132.557 78.4902 132.135 78.2148 131.783 77.875C131.432 77.5234 131.162 77.1309 130.975 76.6973C130.787 76.252 130.693 75.7949 130.693 75.3262C130.693 74.8574 130.781 74.4238 130.957 74.0254C131.145 73.6152 131.391 73.2695 131.695 72.9883C132.012 72.6953 132.369 72.4668 132.768 72.3027C133.166 72.1387 133.588 72.0566 134.033 72.0566C134.314 72.0566 134.607 72.0918 134.912 72.1621V72.6719C134.537 72.6719 134.168 72.748 133.805 72.9004C133.453 73.0527 133.137 73.2637 132.855 73.5332C132.586 73.791 132.369 74.1074 132.205 74.4824C132.041 74.8457 131.959 75.2383 131.959 75.6602C131.959 76.4336 132.223 77.0547 132.75 77.5234C133.289 77.9805 134.021 78.209 134.947 78.209C135.416 78.209 135.844 78.1211 136.23 77.9453C136.617 77.7578 136.945 77.5059 137.215 77.1895C137.496 76.8613 137.707 76.4746 137.848 76.0293C138 75.584 138.076 75.0977 138.076 74.5703C138.076 74.0664 137.977 73.5977 137.777 73.1641C137.578 72.7305 137.314 72.3203 136.986 71.9336C136.658 71.5469 136.283 71.1836 135.861 70.8438C135.451 70.5039 135.029 70.1816 134.596 69.877C134.174 69.5605 133.758 69.2559 133.348 68.9629C132.938 68.6699 132.58 68.377 132.275 68.084L130.518 71.9863L129.797 71.4414L131.59 67.5215C131.156 67.1113 130.834 66.7246 130.623 66.3613C130.424 65.9863 130.324 65.541 130.324 65.0254C130.324 64.7441 130.371 64.4805 130.465 64.2344C130.57 63.9766 130.705 63.7598 130.869 63.584C131.045 63.3965 131.244 63.25 131.467 63.1445C131.689 63.0391 131.924 62.9863 132.17 62.9863C132.615 62.9863 132.949 63.1152 133.172 63.373C133.395 63.6191 133.506 63.9297 133.506 64.3047C133.506 64.4805 133.488 64.668 133.453 64.8672C133.418 65.0547 133.371 65.248 133.312 65.4473C133.266 65.6348 133.213 65.8105 133.154 65.9746C133.107 66.1387 133.066 66.2793 133.031 66.3965C133.383 66.666 133.805 66.9297 134.297 67.1875C134.789 67.4336 135.299 67.6914 135.826 67.9609C136.365 68.2305 136.898 68.5234 137.426 68.8398C137.953 69.1562 138.422 69.5078 138.832 69.8945C139.254 70.2812 139.594 70.7207 139.852 71.2129C140.109 71.7051 140.238 72.2617 140.238 72.8828ZM132.205 63.7773C132.041 63.7773 131.906 63.8359 131.801 63.9531C131.707 64.0586 131.66 64.2051 131.66 64.3926C131.66 64.6035 131.713 64.8379 131.818 65.0957C131.924 65.3535 132.111 65.6055 132.381 65.8516C132.498 65.6055 132.586 65.3652 132.645 65.1309C132.715 64.8965 132.75 64.6621 132.75 64.4277C132.75 64.2402 132.697 64.0879 132.592 63.9707C132.498 63.8418 132.369 63.7773 132.205 63.7773ZM152.332 74.6406C152.332 75.3086 152.391 75.8711 152.508 76.3281C152.625 76.7852 152.83 77.0137 153.123 77.0137C153.299 77.0137 153.486 76.9316 153.686 76.7676C153.896 76.5918 154.137 76.3105 154.406 75.9238C154.676 75.5371 154.98 75.0391 155.32 74.4297C155.672 73.8086 156.07 73.0527 156.516 72.1621L157.043 71.0723L157.764 71.6172L157.236 72.707C156.744 73.6914 156.281 74.5762 155.848 75.3613C155.426 76.1348 155.021 76.791 154.635 77.3301C154.248 77.8691 153.867 78.2852 153.492 78.5781C153.129 78.8594 152.766 79 152.402 79C152.016 79 151.688 78.8945 151.418 78.6836C151.16 78.4727 150.943 78.1855 150.768 77.8223C150.592 77.4473 150.457 77.0195 150.363 76.5391C150.27 76.0469 150.205 75.5254 150.17 74.9746C149.889 75.5371 149.578 76.0645 149.238 76.5566C148.898 77.0371 148.541 77.459 148.166 77.8223C147.803 78.1855 147.422 78.4727 147.023 78.6836C146.625 78.8945 146.227 79 145.828 79C145.242 79 144.674 78.877 144.123 78.6309C143.572 78.3848 143.08 78.0098 142.646 77.5059C142.225 77.002 141.885 76.3691 141.627 75.6074C141.369 74.834 141.24 73.9258 141.24 72.8828C141.24 71.6641 141.398 70.5508 141.715 69.543C142.031 68.5234 142.459 67.6504 142.998 66.9238C143.537 66.1855 144.158 65.6172 144.861 65.2188C145.564 64.8086 146.303 64.6035 147.076 64.6035C147.545 64.6035 147.979 64.709 148.377 64.9199C148.775 65.1309 149.121 65.3887 149.414 65.6934C149.719 65.9863 149.971 66.3027 150.17 66.6426C150.369 66.9707 150.504 67.252 150.574 67.4863L150.785 65.7812C150.809 65.5586 150.914 65.3711 151.102 65.2188C151.301 65.0664 151.518 64.9492 151.752 64.8672C151.986 64.7734 152.215 64.709 152.438 64.6738C152.66 64.627 152.818 64.6035 152.912 64.6035C153.053 64.6035 153.146 64.627 153.193 64.6738C153.24 64.7207 153.264 64.8145 153.264 64.9551C153.264 65.1309 153.211 65.4883 153.105 66.0273C153.012 66.5547 152.906 67.2344 152.789 68.0664C152.684 68.8867 152.578 69.8535 152.473 70.9668C152.379 72.0801 152.332 73.3047 152.332 74.6406ZM150.398 70C150.398 69.4609 150.316 68.9336 150.152 68.418C149.988 67.8906 149.766 67.4277 149.484 67.0293C149.203 66.6191 148.875 66.291 148.5 66.0449C148.137 65.7988 147.75 65.6758 147.34 65.6758C146.836 65.6758 146.361 65.8223 145.916 66.1152C145.482 66.3965 145.102 66.8008 144.773 67.3281C144.457 67.8438 144.205 68.4707 144.018 69.209C143.83 69.9355 143.736 70.7383 143.736 71.6172C143.736 73.375 144.012 74.7168 144.562 75.6426C145.113 76.5566 145.846 77.0137 146.76 77.0137C147.158 77.0137 147.568 76.8555 147.99 76.5391C148.424 76.2109 148.816 75.748 149.168 75.1504C149.531 74.541 149.824 73.8027 150.047 72.9355C150.281 72.0684 150.398 71.0898 150.398 70Z" fill="white"/>
<path d="M11.6523 69.6406C11.6523 70.3086 11.7109 70.8711 11.8281 71.3281C11.9453 71.7852 12.1504 72.0137 12.4434 72.0137C12.6191 72.0137 12.8066 71.9316 13.0059 71.7676C13.2168 71.5918 13.457 71.3105 13.7266 70.9238C13.9961 70.5371 14.3008 70.0391 14.6406 69.4297C14.9922 68.8086 15.3906 68.0527 15.8359 67.1621L16.3633 66.0723L17.084 66.6172L16.5566 67.707C16.0645 68.6914 15.6016 69.5762 15.168 70.3613C14.7461 71.1348 14.3418 71.791 13.9551 72.3301C13.5684 72.8691 13.1875 73.2852 12.8125 73.5781C12.4492 73.8594 12.0859 74 11.7227 74C11.3359 74 11.0078 73.8945 10.7383 73.6836C10.4805 73.4727 10.2637 73.1855 10.0879 72.8223C9.91211 72.4473 9.77734 72.0195 9.68359 71.5391C9.58984 71.0469 9.52539 70.5254 9.49023 69.9746C9.20898 70.5371 8.89844 71.0645 8.55859 71.5566C8.21875 72.0371 7.86133 72.459 7.48633 72.8223C7.12305 73.1855 6.74219 73.4727 6.34375 73.6836C5.94531 73.8945 5.54688 74 5.14844 74C4.5625 74 3.99414 73.877 3.44336 73.6309C2.89258 73.3848 2.40039 73.0098 1.9668 72.5059C1.54492 72.002 1.20508 71.3691 0.947266 70.6074C0.689453 69.834 0.560547 68.9258 0.560547 67.8828C0.560547 66.6641 0.71875 65.5508 1.03516 64.543C1.35156 63.5234 1.7793 62.6504 2.31836 61.9238C2.85742 61.1855 3.47852 60.6172 4.18164 60.2188C4.88477 59.8086 5.62305 59.6035 6.39648 59.6035C6.86523 59.6035 7.29883 59.709 7.69727 59.9199C8.0957 60.1309 8.44141 60.3887 8.73438 60.6934C9.03906 60.9863 9.29102 61.3027 9.49023 61.6426C9.68945 61.9707 9.82422 62.252 9.89453 62.4863L10.1055 60.7812C10.1289 60.5586 10.2344 60.3711 10.4219 60.2188C10.6211 60.0664 10.8379 59.9492 11.0723 59.8672C11.3066 59.7734 11.5352 59.709 11.7578 59.6738C11.9805 59.627 12.1387 59.6035 12.2324 59.6035C12.373 59.6035 12.4668 59.627 12.5137 59.6738C12.5605 59.7207 12.584 59.8145 12.584 59.9551C12.584 60.1309 12.5312 60.4883 12.4258 61.0273C12.332 61.5547 12.2266 62.2344 12.1094 63.0664C12.0039 63.8867 11.8984 64.8535 11.793 65.9668C11.6992 67.0801 11.6523 68.3047 11.6523 69.6406ZM9.71875 65C9.71875 64.4609 9.63672 63.9336 9.47266 63.418C9.30859 62.8906 9.08594 62.4277 8.80469 62.0293C8.52344 61.6191 8.19531 61.291 7.82031 61.0449C7.45703 60.7988 7.07031 60.6758 6.66016 60.6758C6.15625 60.6758 5.68164 60.8223 5.23633 61.1152C4.80273 61.3965 4.42188 61.8008 4.09375 62.3281C3.77734 62.8438 3.52539 63.4707 3.33789 64.209C3.15039 64.9355 3.05664 65.7383 3.05664 66.6172C3.05664 68.375 3.33203 69.7168 3.88281 70.6426C4.43359 71.5566 5.16602 72.0137 6.08008 72.0137C6.47852 72.0137 6.88867 71.8555 7.31055 71.5391C7.74414 71.2109 8.13672 70.748 8.48828 70.1504C8.85156 69.541 9.14453 68.8027 9.36719 67.9355C9.60156 67.0684 9.71875 66.0898 9.71875 65ZM23.1309 60.8164C22.8027 60.8164 22.4336 60.9629 22.0234 61.2559C21.625 61.5488 21.2207 61.9297 20.8105 62.3984C20.4004 62.8555 20.002 63.3711 19.6152 63.9453C19.2402 64.5195 18.9121 65.0879 18.6309 65.6504C18.5957 66.6816 18.5605 67.8066 18.5254 69.0254C18.502 70.2441 18.4902 71.5449 18.4902 72.9277C18.4902 73.1035 18.4082 73.2617 18.2441 73.4023C18.0918 73.5312 17.9102 73.6426 17.6992 73.7363C17.4883 73.8184 17.2715 73.8828 17.0488 73.9297C16.8262 73.9766 16.6445 74 16.5039 74C16.3281 74 16.1641 73.9473 16.0117 73.8418C15.8594 73.7363 15.7832 73.502 15.7832 73.1387C15.7832 72.9629 15.8008 72.7461 15.8359 72.4883C15.8711 72.2188 15.918 71.9316 15.9766 71.627C16.0234 71.3223 16.082 71.0117 16.1523 70.6953C16.2109 70.3672 16.2695 70.0625 16.3281 69.7812V61.1855C16.3281 60.9512 16.334 60.7695 16.3457 60.6406C16.3457 60.5 16.3633 60.3945 16.3984 60.3242C16.4688 60.1602 16.5918 60.0312 16.7676 59.9375C16.9434 59.8438 17.1309 59.7734 17.3301 59.7266C17.5293 59.668 17.7227 59.6328 17.9102 59.6211C18.0977 59.6094 18.2441 59.6035 18.3496 59.6035C18.5488 59.6035 18.6836 59.6562 18.7539 59.7617C18.8359 59.8672 18.877 60.0547 18.877 60.3242C18.877 60.2891 18.8477 60.5762 18.7891 61.1855C18.7422 61.7949 18.7012 62.668 18.666 63.8047C19.0176 63.2539 19.3984 62.7266 19.8086 62.2227C20.2188 61.7188 20.6465 61.2734 21.0918 60.8867C21.5371 60.5 21.9941 60.1895 22.4629 59.9551C22.9434 59.7207 23.4297 59.6035 23.9219 59.6035C24.8008 59.6035 25.4453 59.8848 25.8555 60.4473C26.2656 60.998 26.4707 61.748 26.4707 62.6973C26.4707 63.2949 26.4297 63.9629 26.3477 64.7012C26.2773 65.4277 26.1895 66.1719 26.084 66.9336C25.9902 67.6836 25.9023 68.4219 25.8203 69.1484C25.75 69.8633 25.7148 70.5195 25.7148 71.1172C25.7148 71.8906 25.9551 72.2773 26.4355 72.2773C26.5879 72.2773 26.7637 72.2012 26.9629 72.0488C27.1738 71.8848 27.4316 71.5859 27.7363 71.1523C28.0527 70.7188 28.4277 70.127 28.8613 69.377C29.2949 68.6152 29.8105 67.6367 30.4082 66.4414L30.584 66.0723L31.3047 66.6172L31.1289 66.9863C30.4258 68.3926 29.7988 69.5469 29.248 70.4492C28.709 71.3516 28.2168 72.0664 27.7715 72.5938C27.3262 73.1211 26.9102 73.4902 26.5234 73.7012C26.1367 73.9004 25.75 74 25.3633 74C25.1172 74 24.8711 73.9648 24.625 73.8945C24.3789 73.8242 24.1621 73.7012 23.9746 73.5254C23.7871 73.3496 23.6348 73.1152 23.5176 72.8223C23.4004 72.5176 23.3418 72.1309 23.3418 71.6621C23.3418 70.959 23.3887 70.168 23.4824 69.2891C23.5762 68.4102 23.6816 67.5312 23.7988 66.6523C23.916 65.7734 24.0215 64.9473 24.1152 64.1738C24.209 63.3887 24.2559 62.75 24.2559 62.2578C24.2559 61.8242 24.1621 61.4785 23.9746 61.2207C23.7871 60.9512 23.5059 60.8164 23.1309 60.8164ZM34.1699 74C33.4551 74 32.834 73.8477 32.3066 73.543C31.791 73.2383 31.3633 72.8281 31.0234 72.3125C30.6836 71.7852 30.4316 71.1816 30.2676 70.502C30.1035 69.8223 30.0215 69.1016 30.0215 68.3398C30.0215 67.6719 30.0859 66.9922 30.2148 66.3008C30.3438 65.6094 30.5254 64.9414 30.7598 64.2969C31.0059 63.6406 31.3105 63.0312 31.6738 62.4688C32.0371 61.8945 32.4531 61.3965 32.9219 60.9746C33.3906 60.5527 33.9121 60.2188 34.4863 59.9727C35.0723 59.7266 35.6992 59.6035 36.3672 59.6035C37.1289 59.6035 37.7734 59.7734 38.3008 60.1133C38.8398 60.4531 39.2734 60.8691 39.6016 61.3613C39.6133 59.1465 39.7246 57.1895 39.9355 55.4902C40.1465 53.791 40.4395 52.3672 40.8145 51.2188C41.2012 50.0703 41.6582 49.2031 42.1855 48.6172C42.7129 48.0195 43.293 47.7207 43.9258 47.7207C44.1484 47.7207 44.3477 47.75 44.5234 47.8086C44.7109 47.8555 44.8633 47.9492 44.9805 48.0898C45.1094 48.2305 45.2031 48.4238 45.2617 48.6699C45.332 48.9043 45.3672 49.209 45.3672 49.584C45.3672 50.3574 45.291 51.248 45.1387 52.2559C44.9863 53.252 44.7695 54.3418 44.4883 55.5254C44.207 56.6973 43.8613 57.9512 43.4512 59.2871C43.0527 60.6113 42.6074 61.9883 42.1152 63.418C42.127 64.6719 42.1445 65.7559 42.168 66.6699C42.1914 67.584 42.2207 68.3574 42.2559 68.9902C42.3027 69.623 42.3555 70.1387 42.4141 70.5371C42.4844 70.9355 42.5605 71.2461 42.6426 71.4688C42.7363 71.6797 42.8418 71.8262 42.959 71.9082C43.0879 71.9785 43.2285 72.0137 43.3809 72.0137C43.6504 72.0137 43.9199 71.8965 44.1895 71.6621C44.4707 71.416 44.7695 71.0586 45.0859 70.5898C45.4023 70.1094 45.7422 69.5234 46.1055 68.832C46.4805 68.1406 46.8906 67.3438 47.3359 66.4414L47.5293 66.0723L48.25 66.6172L48.0566 66.9863C47.377 68.3574 46.7793 69.4941 46.2637 70.3965C45.748 71.2871 45.2734 72.002 44.8398 72.541C44.418 73.0801 44.0137 73.4609 43.627 73.6836C43.2402 73.8945 42.8359 74 42.4141 74C42.0039 74 41.6465 73.9004 41.3418 73.7012C41.0488 73.4902 40.7969 73.168 40.5859 72.7344C40.375 72.2891 40.2051 71.7266 40.0762 71.0469C39.9473 70.3555 39.8477 69.5293 39.7773 68.5684C39.3672 69.3887 38.9453 70.1328 38.5117 70.8008C38.0781 71.4688 37.627 72.043 37.1582 72.5234C36.7012 72.9922 36.2207 73.3555 35.7168 73.6133C35.2129 73.8711 34.6973 74 34.1699 74ZM36.7188 60.5C36.0742 60.5 35.5117 60.6992 35.0312 61.0977C34.5508 61.4844 34.1523 61.9941 33.8359 62.627C33.5195 63.248 33.2852 63.9512 33.1328 64.7363C32.9805 65.5215 32.9043 66.3066 32.9043 67.0918C32.9043 67.7363 32.9512 68.3574 33.0449 68.9551C33.1504 69.541 33.3027 70.0625 33.502 70.5195C33.7129 70.9766 33.9648 71.3398 34.2578 71.6094C34.5508 71.8789 34.8906 72.0137 35.2773 72.0137C35.6523 72.0137 36.0156 71.9199 36.3672 71.7324C36.7305 71.5449 37.0879 71.2461 37.4395 70.8359C37.791 70.4141 38.1484 69.875 38.5117 69.2188C38.875 68.5508 39.2617 67.7422 39.6719 66.793C39.6484 66.2305 39.6309 65.6328 39.6191 65C39.6074 64.3555 39.6016 63.6699 39.6016 62.9434C39.3438 62.1816 38.9512 61.584 38.4238 61.1504C37.9082 60.7168 37.3398 60.5 36.7188 60.5ZM44.1016 50.2344C44.1016 49.6953 44.0371 49.3203 43.9082 49.1094C43.791 48.8984 43.6504 48.793 43.4863 48.793C43.2051 48.793 42.9766 49.0684 42.8008 49.6191C42.625 50.1582 42.4844 50.8906 42.3789 51.8164C42.2852 52.7422 42.2148 53.8145 42.168 55.0332C42.1328 56.252 42.1152 57.5352 42.1152 58.8828V60.8164C42.4785 59.6328 42.7891 58.5664 43.0469 57.6172C43.3047 56.668 43.5098 55.7832 43.6621 54.9629C43.8145 54.1426 43.9258 53.3516 43.9961 52.5898C44.0664 51.8281 44.1016 51.043 44.1016 50.2344Z" fill="white"/>
</svg>
